<?xml version="1.0" encoding="UTF-8"?>
<svg version="1.1" xmlns="http://www.w3.org/2000/svg" width="3163" height="873">
<path d="M0 0 C58.08 0 116.16 0 176 0 C176 130.02 176 260.04 176 394 C246.29 394 316.58 394 389 394 C389 339.55 389 285.1 389 229 C448.07 229 507.14 229 568 229 C568 283.78 568 338.56 568 395 C511 395.25 511 395.25 493.08984375 395.29785156 C487.73057285 395.33112523 487.73057285 395.33112523 482.37133789 395.36956787 C480.00874075 395.38405589 477.64608875 395.39094856 475.28344727 395.39154053 C452.13068827 395.4072516 431.80526377 397.60033859 413.53515625 413.421875 C400.21775401 426.96499592 393.54288741 444.44686158 393.56762695 463.2644043 C393.55735316 464.45519246 393.54707937 465.64598063 393.53649426 466.87285328 C393.50683825 470.69002816 393.4971005 474.50694506 393.48828125 478.32421875 C393.47279897 480.69585048 393.45599923 483.06747397 393.43786621 485.43908691 C393.38014201 494.18846732 393.34783326 502.93800052 393.3125 511.6875 C393.209375 531.260625 393.10625 550.83375 393 571 C321.06 571 249.12 571 175 571 C174.75 511.875 174.75 511.875 174.70214844 493.27685547 C174.66888667 487.72594998 174.66888667 487.72594998 174.63043213 482.17507935 C174.61591608 479.72239327 174.60905036 477.26965401 174.60845947 474.81692505 C174.82030448 455.51713779 174.82030448 455.51713779 170 437 C169.71991089 436.30907257 169.43982178 435.61814514 169.15124512 434.90628052 C161.50308084 417.85294922 148.8623331 407.3459669 132 400 C89.28311779 389.32077945 44.0299183 395.37956826 0 395 C0 264.65 0 134.3 0 0 Z " fill="#FFFFFF" transform="translate(81,210)"/>
<path d="M0 0 C1.36125 0.928125 1.36125 0.928125 2.75 1.875 C6.1752303 5.10993972 8.52238203 9.01537729 11 13 C11.78310547 12.05640625 11.78310547 12.05640625 12.58203125 11.09375 C25.76224128 -4.23314923 42.73021283 -13.2698829 63 -15 C84.53616 -16.24776109 106.20920362 -13.2121378 123.375 0.9609375 C136.78163788 13.50701416 140.93187445 29.26124795 142 47 C142.12709683 51.70811132 142.12699997 56.41247828 142.11352539 61.12207031 C142.11324255 62.49328103 142.11340315 63.86449189 142.1139679 65.23570251 C142.11425207 68.91877236 142.10841727 72.60180892 142.10139394 76.2848711 C142.09509667 80.14855081 142.0945516 84.01223148 142.09336853 87.87591553 C142.09027386 95.17475403 142.08208587 102.47357735 142.07201904 109.7724092 C142.06079967 118.08933488 142.05533284 126.40626132 142.05032361 134.72319269 C142.03990149 151.81547205 142.02157947 168.90773053 142 186 C123.52 186 105.04 186 86 186 C85.95101562 177.03199219 85.90203125 168.06398438 85.8515625 158.82421875 C85.81165946 152.40782748 85.77053996 145.991453 85.72766876 139.57508183 C85.67234639 131.27102388 85.61985926 122.96698034 85.578125 114.6628418 C85.5450635 108.08621203 85.50515543 101.5096645 85.45720994 94.93312579 C85.43208481 91.45466021 85.41026328 87.97624819 85.39665604 84.4977169 C85.38129367 80.60344127 85.35063771 76.70936329 85.31884766 72.81518555 C85.31668747 71.67654053 85.31452728 70.53789551 85.31230164 69.36474609 C85.18563433 57.16371879 83.97925822 46.4063481 75.375 37.1875 C67.2743805 31.25116815 57.78021988 29.86792204 48 31 C39.97044281 32.6508457 33.20584478 35.50431422 28 42 C21.47409491 52.59002901 19.70449994 62.0699349 19.68115234 74.29101562 C19.67110672 75.50162659 19.6610611 76.71223755 19.65071106 77.95953369 C19.62523479 81.25648367 19.60830956 84.55334063 19.59528303 87.85035896 C19.57958197 91.30438174 19.55281425 94.75831894 19.5272522 98.21228027 C19.48058727 104.74268585 19.44378399 111.27310774 19.41057932 117.80359411 C19.36850809 125.97328863 19.31317417 134.14288659 19.2578125 142.3125 C19.1591878 156.87494684 19.08052651 171.43741688 19 186 C0.19 186 -18.62 186 -38 186 C-38.02578125 176.67105469 -38.0515625 167.34210938 -38.078125 157.73046875 C-38.10329969 151.81052605 -38.12947535 145.89061562 -38.16015625 139.97070312 C-38.20863887 130.58016199 -38.253105 121.18972819 -38.27099609 111.79907227 C-38.28404723 104.95869744 -38.31109955 98.11854187 -38.35461307 91.27829057 C-38.37715063 87.66002814 -38.39291536 84.04203535 -38.39188385 80.42369652 C-38.39099261 76.37354732 -38.42137508 72.32418717 -38.45410156 68.27416992 C-38.4490712 67.08877121 -38.44404083 65.9033725 -38.43885803 64.68205261 C-38.55887258 55.04335964 -40.56527062 45.50718428 -47 38 C-55.78587891 31.11740777 -65.0778662 30.05596437 -76 31 C-85.44717529 33.00722427 -92.44309264 37.87665432 -97.8125 45.875 C-103.44852104 55.66687494 -104.14793487 65.72214527 -104.20532227 76.78857422 C-104.21522186 77.96963242 -104.22512146 79.15069061 -104.23532104 80.36753845 C-104.26142459 83.59227433 -104.28332113 86.81700537 -104.30332303 90.04178381 C-104.32526118 93.41705265 -104.3526114 96.79227761 -104.37937927 100.16751099 C-104.42920068 106.55278601 -104.47417844 112.93808552 -104.51740164 119.32340825 C-104.5717201 127.30938833 -104.63252957 135.29531731 -104.69335938 143.28125 C-104.80179511 157.520794 -104.90043709 171.76038506 -105 186 C-123.48 186 -141.96 186 -161 186 C-161 120.99 -161 55.98 -161 -11 C-142.52 -11 -124.04 -11 -105 -11 C-104.67 -4.4 -104.34 2.2 -104 9 C-102.35 7.02 -100.7 5.04 -99 3 C-71.90122664 -20.28867727 -28.37863692 -22.03078393 0 0 Z " fill="#FFFFFF" transform="translate(2940,432)"/>
<path d="M0 0 C3.9375 3.5 3.9375 3.5 10.9375 11.5 C11.5975 3.91 12.2575 -3.68 12.9375 -11.5 C30.4275 -11.5 47.9175 -11.5 65.9375 -11.5 C66.00541757 13.69254359 66.06059808 38.88501218 66.09293652 64.07762432 C66.10835592 75.77696211 66.12935042 87.47623865 66.16381836 99.17553711 C66.19387243 109.38158599 66.21311072 119.58759049 66.21976548 129.7936824 C66.22365082 135.1896002 66.2326772 140.5853911 66.25469017 145.98126793 C66.27530925 151.077577 66.28128342 156.17370894 66.27682304 161.27005577 C66.27763704 163.12374846 66.28344927 164.97744813 66.29511642 166.83110428 C66.46735493 195.65104527 62.18748168 226.46325524 41.9375 248.5 C41.30070312 249.20511719 40.66390625 249.91023438 40.0078125 250.63671875 C23.11592441 268.44443209 -2.38334574 277.04431598 -26.56170654 277.85940552 C-30.1881365 277.92526477 -33.81083926 277.91435029 -37.4375 277.875 C-38.19841949 277.87067963 -38.95933899 277.86635925 -39.74331665 277.86190796 C-51.37147714 277.78469655 -62.7362854 277.32599068 -74.0625 274.5 C-74.74183594 274.33371094 -75.42117188 274.16742187 -76.12109375 273.99609375 C-91.52010052 270.06629051 -105.33843458 263.32073579 -117.0625 252.5 C-117.76632812 251.88769531 -118.47015625 251.27539062 -119.1953125 250.64453125 C-128.33171683 242.24262217 -135.37740536 229.90958342 -140.0625 218.5 C-140.0625 217.51 -140.0625 216.52 -140.0625 215.5 C-134.81736758 213.27188091 -129.57032647 211.04833893 -124.3215332 208.82885742 C-122.53943707 208.07455236 -120.75785149 207.31903983 -118.97680664 206.56225586 C-116.40386937 205.46924386 -113.82907428 204.38071286 -111.25390625 203.29296875 C-110.46915421 202.95847214 -109.68440216 202.62397552 -108.87586975 202.27934265 C-103.6802536 200.09130721 -98.43507956 198.20716783 -93.0625 196.5 C-92.60359375 197.45261719 -92.1446875 198.40523437 -91.671875 199.38671875 C-91.05241026 200.65380572 -90.43260019 201.9207239 -89.8125 203.1875 C-89.51214844 203.81333984 -89.21179687 204.43917969 -88.90234375 205.08398438 C-86.98998365 208.96973735 -84.81019038 212.12617663 -82.0625 215.5 C-82.0625 216.16 -82.0625 216.82 -82.0625 217.5 C-81.4025 217.5 -80.7425 217.5 -80.0625 217.5 C-78.93118685 218.66559536 -77.80036989 219.83167587 -76.671875 221 C-65.85019305 231.08622784 -52.12251878 234.01203346 -37.71484375 233.74609375 C-25.06127878 232.8935006 -12.52609869 229.33785243 -3.6875 219.734375 C7.46370031 204.40147458 9.11421944 187.35269401 9 169 C8.99497533 167.59114742 8.99041413 166.18229311 8.98632812 164.7734375 C8.9746003 161.34891362 8.95818691 157.92447953 8.9375 154.5 C8.18327759 155.29229004 8.18327759 155.29229004 7.41381836 156.10058594 C1.41566231 162.27173177 -4.53642407 166.30114319 -12.0625 170.5 C-12.77792969 170.9125 -13.49335937 171.325 -14.23046875 171.75 C-32.45292608 181.0612756 -56.83945006 180.93885788 -76.02001953 174.88183594 C-89.51280614 170.24590476 -100.82156905 163.43656761 -111.0625 153.5 C-111.67609375 152.95988281 -112.2896875 152.41976562 -112.921875 151.86328125 C-128.6431868 137.54823358 -137.51960181 113.32335987 -139.0625 92.5 C-140.40171519 62.82609222 -135.06760851 35.95486623 -115.3359375 12.95703125 C-86.05586421 -18.68758404 -35.26597178 -26.03248254 0 0 Z M-69.4375 41.5625 C-79.61875719 51.42506874 -84.90259465 64.3668754 -85.40966797 78.42724609 C-85.6083153 93.22124441 -81.39085781 107.74395032 -71.03515625 118.69140625 C-60.2657635 128.56512673 -48.59442184 132.78531532 -34.0625 133.5 C-19.74303716 132.73288592 -9.98088953 127.47572411 0.5625 118.1875 C11.36001593 105.96925829 16.10968769 93.06328596 15.35546875 76.87109375 C14.52688898 66.28523293 11.03629645 57.13461181 4.9375 48.5 C3.8546875 46.953125 3.8546875 46.953125 2.75 45.375 C-6.53611519 34.89835723 -18.61741303 30.18707485 -32.19921875 28.69921875 C-46.38110933 27.9678978 -58.48171872 32.5834499 -69.4375 41.5625 Z " fill="#FFFFFF" transform="translate(1590.0625,432.5)"/>
<path d="M0 0 C18.48 0 36.96 0 56 0 C56 97.02 56 194.04 56 294 C38.51 294 21.02 294 3 294 C2.40445309 290.42671854 1.8747694 287.2457175 1.68359375 283.6953125 C1.62075195 282.57382812 1.62075195 282.57382812 1.55664062 281.4296875 C1.51732422 280.66914062 1.47800781 279.90859375 1.4375 279.125 C1.39431641 278.34125 1.35113281 277.5575 1.30664062 276.75 C1.20146649 274.83349351 1.10032075 272.91676667 1 271 C0.45472656 271.64066406 -0.09054687 272.28132813 -0.65234375 272.94140625 C-12.76703556 286.8370613 -28.22886187 296.38833663 -47 298 C-75.66246561 299.69711967 -100.82948066 294.6466427 -123.26953125 275.57421875 C-145.00869011 255.0790747 -154.15151721 227.6135742 -155.125 198.2265625 C-155.72264115 169.27809834 -147.29829884 141.59804385 -127.2578125 120.30078125 C-126.51273438 119.54152344 -125.76765625 118.78226562 -125 118 C-124.00613281 116.96939453 -124.00613281 116.96939453 -122.9921875 115.91796875 C-110.85533914 104.21952366 -93.49265519 96.71198537 -77 94 C-76.35675781 93.88914062 -75.71351562 93.77828125 -75.05078125 93.6640625 C-52.36665082 90.46668031 -29.98475891 94.3404673 -11.0703125 107.42578125 C-8 110 -8 110 -1 118 C-0.67 79.06 -0.34 40.12 0 0 Z M-87 157 C-92.51036104 164.57095824 -96.23843561 172.78215876 -98 182 C-98.226875 183.11375 -98.45375 184.2275 -98.6875 185.375 C-100.33795821 204.5203152 -96.84621124 221.96855701 -84.41015625 236.91015625 C-75.88490677 246.03718805 -64.09118888 251.44837594 -51.65234375 252.203125 C-35.77425091 252.40347948 -22.92922282 248.85900066 -11.125 237.6875 C2.01538061 223.62040177 4.69087348 206.92011617 4.140625 188.41113281 C3.4414475 176.42315189 -1.87408021 165.46057321 -9 156 C-9.45503906 155.39285156 -9.91007812 154.78570312 -10.37890625 154.16015625 C-17.68692423 145.74544103 -31.00483152 139.85014189 -42 139 C-42.77085938 138.93167969 -43.54171875 138.86335937 -44.3359375 138.79296875 C-60.87230897 138.07050592 -76.10019084 144.62041543 -87 157 Z " fill="#FFFFFF" transform="translate(1356,324)"/>
<path d="M0 0 C18.15 0 36.3 0 55 0 C55.33 38.94 55.66 77.88 56 118 C59.96 113.545 59.96 113.545 64 109 C81.99006118 94.32115298 105.16177042 91.31206129 127.53125 93.31640625 C130.73012063 93.74732208 133.84548292 94.31783568 137 95 C138.093125 95.23332031 139.18625 95.46664062 140.3125 95.70703125 C154.29337424 99.18636245 167.39199416 106.25458287 178 116 C178.82757812 116.73605469 179.65515625 117.47210938 180.5078125 118.23046875 C200.94736199 137.38863976 209.08723453 165.34845746 210.22265625 192.6328125 C210.98008233 221.01867591 203.16898659 248.82052232 183.80859375 270.1015625 C172.58225722 281.9207984 158.46534458 290.05708115 143 295 C141.52660156 295.47953125 141.52660156 295.47953125 140.0234375 295.96875 C118.00937263 301.86830088 92.72423993 299.3374101 72.75390625 288.359375 C65.89618283 284.27332214 59.4288427 278.64326405 55 272 C52.67143344 278.98569968 53.38702086 286.6466037 53 294 C35.51 294 18.02 294 0 294 C0 196.98 0 99.96 0 0 Z M64 156 C52.84659179 170.73133322 48.80785156 187.87973413 51.28857422 206.12207031 C53.99286259 221.53469908 60.87200177 234.81781843 73.8203125 244 C85.94267636 251.59625934 98.82728068 253.75948336 112.9765625 251.53125 C127.68959161 247.96959454 138.71925361 240.11943596 146.875 227.375 C155.79694483 210.85991063 156.24618032 191.76496253 151 174 C146.46760738 160.84598943 138.12223325 150.63540805 125.77734375 144.28515625 C104.45353327 134.41802032 80.0885038 138.39084366 64 156 Z " fill="#FFFFFF" transform="translate(2088,324)"/>
<path d="M0 0 C6.51736016 5.67071072 12.14140807 11.65317922 16.484375 19.171875 C16.80744629 19.72794434 17.13051758 20.28401367 17.46337891 20.85693359 C28.91649703 40.96304102 36.22007175 70.22908801 30.484375 93.171875 C-17.365625 93.171875 -65.215625 93.171875 -114.515625 93.171875 C-110.43473114 110.51567391 -106.98342799 123.73046369 -91.640625 133.609375 C-79.04891108 140.46701612 -64.56859263 141.60533005 -50.7734375 138.1796875 C-39.88170213 134.81030174 -31.56229319 129.32982949 -26.015625 119.234375 C-25.16582143 117.55510891 -24.32644885 115.87030527 -23.515625 114.171875 C-6.09456008 115.83456923 11.18543699 118.56526733 28.484375 121.171875 C22.9985258 141.39601633 9.45209032 159.27731578 -8.515625 170.171875 C-27.07099058 180.66056604 -48.04509612 186.62926848 -69.515625 185.171875 C-70.22090332 185.12933594 -70.92618164 185.08679688 -71.65283203 185.04296875 C-100.30831289 183.19842366 -126.6079486 174.35149671 -146.703125 152.921875 C-168.19206051 127.56580999 -171.52715921 95.3839978 -169.32958984 63.47021484 C-167.01560573 42.00341721 -156.59373847 22.30144961 -141.515625 7.171875 C-140.78085938 6.41390625 -140.04609375 5.6559375 -139.2890625 4.875 C-105.11027461 -28.27499494 -36.44188341 -30.21319302 0 0 Z M-101.515625 32.171875 C-107.26199443 38.92896949 -112.515625 47.08924173 -112.515625 56.171875 C-83.475625 56.171875 -54.435625 56.171875 -24.515625 56.171875 C-25.33495004 47.8867767 -25.33495004 47.8867767 -28.328125 40.921875 C-28.82957031 39.94734375 -29.33101562 38.9728125 -29.84765625 37.96875 C-35.63962641 28.25668762 -43.66490029 22.99043472 -54.515625 20.171875 C-70.98096564 17.03452915 -89.28219021 20.27952111 -101.515625 32.171875 Z " fill="#FFFFFF" transform="translate(2492.515625,436.828125)"/>
<path d="M0 0 C6.51736016 5.67071072 12.14140807 11.65317922 16.484375 19.171875 C16.80744629 19.72794434 17.13051758 20.28401367 17.46337891 20.85693359 C29.33142002 41.69144407 33.28190329 66.38105937 31.484375 90.171875 C31.154375 91.161875 30.824375 92.151875 30.484375 93.171875 C-17.365625 93.171875 -65.215625 93.171875 -114.515625 93.171875 C-110.43473114 110.51567391 -106.98342799 123.73046369 -91.640625 133.609375 C-79.04891108 140.46701612 -64.56859263 141.60533005 -50.7734375 138.1796875 C-39.88170213 134.81030174 -31.56229319 129.32982949 -26.015625 119.234375 C-25.16582143 117.55510891 -24.32644885 115.87030527 -23.515625 114.171875 C-6.09456008 115.83456923 11.18543699 118.56526733 28.484375 121.171875 C26.77116625 127.50048914 24.79482719 133.2803509 21.546875 138.984375 C20.96752197 140.00349976 20.96752197 140.00349976 20.37646484 141.04321289 C16.04455052 148.34468092 10.61771939 154.34539971 4.484375 160.171875 C3.61039063 161.00460937 2.73640625 161.83734375 1.8359375 162.6953125 C-17.8920125 180.05353878 -45.99787686 186.46440539 -71.70117188 185.05175781 C-100.335154 183.19256212 -126.62493497 174.33338234 -146.703125 152.921875 C-168.15276986 127.61217135 -171.71708961 95.38116274 -169.31347656 63.48974609 C-168.78711501 58.92629074 -167.78618295 54.58032607 -166.515625 50.171875 C-166.32226562 49.49447266 -166.12890625 48.81707031 -165.9296875 48.11914062 C-161.04350149 31.51515667 -152.76883493 18.29950299 -140.515625 6.171875 C-139.45794922 5.08132813 -139.45794922 5.08132813 -138.37890625 3.96875 C-104.555998 -28.75894027 -35.69471734 -29.59373347 0 0 Z M-101.515625 32.171875 C-107.26199443 38.92896949 -112.515625 47.08924173 -112.515625 56.171875 C-83.475625 56.171875 -54.435625 56.171875 -24.515625 56.171875 C-25.76810118 44.89958941 -29.41687573 35.52141591 -37.99609375 27.84765625 C-55.7068067 13.83894506 -85.69274122 16.79014969 -101.515625 32.171875 Z " fill="#FFFFFF" transform="translate(1144.515625,436.828125)"/>
<path d="M0 0 C0.67255829 -0.00794586 1.34511658 -0.01589172 2.03805542 -0.02407837 C25.0766121 -0.23296128 48.17183969 6.15296443 65.875 21.375 C67.33292969 22.53902344 67.33292969 22.53902344 68.8203125 23.7265625 C85.80132932 37.92004894 93.71494764 62.11198457 95.875 83.375 C96.1507161 86.76869945 96.3703597 90.16309478 96.5625 93.5625 C96.63537231 94.79154053 96.63537231 94.79154053 96.7097168 96.04541016 C96.99209261 102.05056226 96.48631365 107.26186349 95.875 113.375 C48.025 113.375 0.175 113.375 -49.125 113.375 C-47.03738712 125.47712721 -47.03738712 125.47712721 -42.75 135.9375 C-42.18539063 137.03191406 -41.62078125 138.12632812 -41.0390625 139.25390625 C-34.78510467 149.45168647 -25.70692738 155.2633395 -14.3515625 158.65234375 C1.99740192 162.31403675 16.50814065 159.51233029 30.5625 150.6875 C35.23336951 146.01663049 39.06566011 140.35349671 41.875 134.375 C58.97379558 135.98627891 75.91206894 138.73350424 92.875 141.375 C92.16159336 147.25068415 90.77205011 151.36211288 88 156.5 C87.60433838 157.23847168 87.20867676 157.97694336 86.80102539 158.73779297 C75.36377823 179.30397427 56.24252926 193.23978795 34.109375 200.6328125 C3.5709244 209.25768872 -29.6209242 206.41041652 -57.9375 191.9375 C-64.14525497 188.36804089 -69.71138455 184.04714667 -75.125 179.375 C-76.14207031 178.50294922 -76.14207031 178.50294922 -77.1796875 177.61328125 C-97.34310079 158.94795288 -103.83680934 131.18979378 -104.94799805 104.77954102 C-105.85726512 77.19566556 -97.76926331 50.25788905 -79.1328125 29.48046875 C-58.49419638 7.55109438 -29.16934367 0.18060601 0 0 Z M-37.00390625 53.06640625 C-43.60994936 60.25640897 -45.07573256 66.46488081 -48.125 76.375 C-18.755 76.375 10.615 76.375 40.875 76.375 C39.35625106 64.22500852 34.95581889 55.32820191 25.55859375 47.2734375 C6.99530339 34.14132817 -21.09279391 37.56261838 -37.00390625 53.06640625 Z " fill="#FFFFFF" transform="translate(1801.125,416.625)"/>
<path d="M0 0 C14.71921249 13.87811464 19.17483843 32.67697873 20.25 52.25 C20.42454281 58.69214818 20.42765554 65.13756828 20.44923019 71.58167839 C20.46118149 74.84394401 20.4806748 78.1060866 20.50234985 81.36830139 C20.56341189 90.63652328 20.61776969 99.90473004 20.65136719 109.1730957 C20.67254843 114.86700421 20.70803087 120.5606824 20.75212479 126.25445747 C20.76609742 128.40016498 20.77496381 130.54591315 20.77817917 132.69166374 C20.79751736 144.36473026 21.26010674 155.67190414 23.20709801 167.20035458 C23.40678405 168.39379404 23.40678405 168.39379404 23.61050415 169.61134338 C23.73315454 170.29300851 23.85580494 170.97467363 23.98217201 171.67699528 C24.38167163 175.51496017 24.25 179.39129886 24.25 183.25 C7.09 183.25 -10.07 183.25 -27.75 183.25 C-29.07 177.31 -30.39 171.37 -31.75 165.25 C-34.83921176 165.25 -36.05146025 167.20643431 -38.3125 169.25 C-53.0265679 181.43179024 -71.8847532 186.59037599 -90.75 187.25 C-92.08611328 187.34474609 -92.08611328 187.34474609 -93.44921875 187.44140625 C-111.04362037 188.2021126 -127.68937154 183.25593068 -141.1875 171.9375 C-150.974315 162.57965254 -155.49626003 150.6920718 -155.98828125 137.30859375 C-156.31735715 120.69542583 -154.31347563 105.79115436 -142.6484375 92.93359375 C-137.54057354 88.17768508 -131.89806198 84.51587908 -125.75 81.25 C-124.83089844 80.75757813 -123.91179688 80.26515625 -122.96484375 79.7578125 C-116.5508011 76.56320545 -110.09781267 74.32394273 -103.21875 72.37890625 C-101.85238655 71.99068443 -101.85238655 71.99068443 -100.4584198 71.59461975 C-89.13405354 68.4400167 -77.64582299 66.00689685 -66.1496582 63.57006836 C-49.5161812 60.72257051 -49.5161812 60.72257051 -35.625 52 C-33.70833641 45.97620014 -34.14592198 39.89030248 -36.66796875 34.09765625 C-40.58524516 27.40858859 -46.85209471 24.92863433 -54.0859375 22.94140625 C-66.32002837 20.63284113 -79.76273623 21.36848593 -90.625 27.875 C-98.76419189 33.87617953 -101.60765986 41.67308293 -103.75 51.25 C-113.46556331 49.94642208 -123.10101137 48.36100226 -132.74047852 46.59057617 C-134.97281026 46.18102181 -137.20606556 45.77679984 -139.43945312 45.37304688 C-140.86984825 45.11228939 -142.30018898 44.85123324 -143.73046875 44.58984375 C-145.00817139 44.35644287 -146.28587402 44.12304199 -147.60229492 43.88256836 C-150.75 43.25 -150.75 43.25 -153.75 42.25 C-151.15684178 24.75585797 -142.41653453 9.03145644 -128.22265625 -1.65234375 C-94.27049652 -24.43668589 -32.37850712 -27.13679265 0 0 Z M-39.85058594 95.56347656 C-41.3730191 95.99457733 -41.3730191 95.99457733 -42.9262085 96.43438721 C-44.01790344 96.74994568 -45.10959839 97.06550415 -46.234375 97.390625 C-47.36393616 97.71407898 -48.49349731 98.03753296 -49.6572876 98.37078857 C-52.04867349 99.05746579 -54.43926002 99.74693199 -56.82910156 100.43896484 C-60.46930371 101.49112756 -64.11330352 102.52927467 -67.7578125 103.56640625 C-70.08357899 104.23612665 -72.40910779 104.90667315 -74.734375 105.578125 C-75.81797302 105.88558655 -76.90157104 106.1930481 -78.01800537 106.50982666 C-87.74744471 109.35044839 -95.05110509 112.41688908 -101.5625 120.5 C-103.84267629 125.78040825 -103.27020336 130.60725253 -101.5625 136 C-98.07075593 142.26105834 -93.42235868 145.87289867 -86.75 148.25 C-75.36405399 150.98262704 -63.45843867 148.43833273 -53.37109375 142.87890625 C-41.79611415 135.68551357 -35.14786019 124.27628588 -31.99609375 111.09765625 C-30.97461257 105.4330788 -30.52892276 99.99800815 -30.75 94.25 C-34.29040391 94.25 -36.51355756 94.6103956 -39.85058594 95.56347656 Z " fill="#FFFFFF" transform="translate(2706.75,434.75)"/>
<path d="M0 0 C19.14 0 38.28 0 58 0 C59.85997082 1.85997082 59.12278187 4.51684679 59.12908131 6.99185902 C59.12471205 8.29484838 59.12471205 8.29484838 59.12025452 9.62416077 C59.12110894 10.53973092 59.12196337 11.45530107 59.12284368 12.39861578 C59.12450129 15.49110506 59.11897254 18.58354104 59.11352539 21.67602539 C59.11324355 23.88304137 59.11340118 26.09005744 59.1139679 28.29707336 C59.11425601 34.30922725 59.10835711 40.32136137 59.10139394 46.33351064 C59.09516263 52.60893101 59.09455678 58.88435179 59.09336853 65.15977478 C59.09060884 75.69937477 59.08435333 86.23896825 59.07543945 96.77856445 C59.06626602 107.63631148 59.05918485 118.49405653 59.05493164 129.35180664 C59.05466892 130.02063093 59.05440619 130.68945521 59.05413551 131.3785469 C59.05283051 134.73370822 59.05156679 138.08886954 59.05032361 141.44403088 C59.03985772 169.29602683 59.02151142 197.14801024 59 225 C87.38 225 115.76 225 145 225 C145 242.16 145 259.32 145 277 C97.15 277 49.3 277 0 277 C0 185.59 0 94.18 0 0 Z " fill="#FFFFFF" transform="translate(810,341)"/>
<path d="M0 0 C0 16.17 0 32.34 0 49 C-3.856875 49.4125 -7.71375 49.825 -11.6875 50.25 C-27.66761283 52.11021155 -41.77972715 54.75176269 -52.5 67.8046875 C-59.20386416 77.61607203 -60.29346185 89.58595779 -60.31884766 101.14111328 C-60.33391609 102.73801247 -60.33391609 102.73801247 -60.34928894 104.36717224 C-60.37993673 107.85154733 -60.3971047 111.33584624 -60.4140625 114.8203125 C-60.43278896 117.24983365 -60.45236346 119.6793484 -60.4727478 122.1088562 C-60.52391879 128.47750054 -60.56362482 134.84616593 -60.60089111 141.21490479 C-60.64102525 147.72405135 -60.69207456 154.23311147 -60.7421875 160.7421875 C-60.8387687 173.49472974 -60.92360134 186.24732169 -61 199 C-68.28421548 199.02312916 -75.5684231 199.04091801 -82.85266781 199.05181217 C-86.23471813 199.05703975 -89.6167434 199.06413511 -92.9987793 199.07543945 C-96.88329777 199.08834267 -100.76780597 199.09322924 -104.65234375 199.09765625 C-105.87211411 199.10281754 -107.09188446 199.10797882 -108.34861755 199.11329651 C-110.03024742 199.11340981 -110.03024742 199.11340981 -111.74584961 199.11352539 C-112.73846298 199.115746 -113.73107635 199.11796661 -114.75376892 199.12025452 C-117 199 -117 199 -118 198 C-118.09995474 195.48555291 -118.13441305 192.99851093 -118.12698364 190.48352051 C-118.12854363 189.68707894 -118.13010362 188.89063737 -118.13171089 188.07006121 C-118.13572414 185.38067345 -118.13253 182.69134138 -118.12939453 180.00195312 C-118.13074843 178.08226997 -118.13252829 176.16258707 -118.13470459 174.24290466 C-118.1392803 169.01371822 -118.1374888 163.78455141 -118.1343255 158.55536461 C-118.13180261 153.09586914 -118.13413924 147.63637541 -118.13571167 142.17687988 C-118.13753357 133.00675147 -118.13512651 123.8366311 -118.13037109 114.66650391 C-118.12492844 104.04817641 -118.12669108 93.42986811 -118.1321975 82.81154108 C-118.13672804 73.71264052 -118.13737947 64.61374575 -118.13475883 55.51484442 C-118.13319573 50.07268299 -118.13300319 44.6305306 -118.13629532 39.18836975 C-118.13917318 34.07326924 -118.13719992 28.95819359 -118.13140106 23.84309578 C-118.130073 21.96004846 -118.13046835 20.07699907 -118.13266373 18.19395256 C-118.13537345 15.63476611 -118.13199631 13.0756607 -118.12698364 10.51647949 C-118.12921436 9.76133954 -118.13144509 9.00619958 -118.13374341 8.22817659 C-118.11414985 3.11414985 -118.11414985 3.11414985 -117 2 C-115.34261557 1.90653085 -113.68125356 1.88255023 -112.02124023 1.88647461 C-110.96021591 1.88655014 -109.89919159 1.88662567 -108.80601501 1.88670349 C-107.651866 1.89186478 -106.49771698 1.89702606 -105.30859375 1.90234375 C-104.13361832 1.9037587 -102.95864288 1.90517365 -101.74806213 1.90663147 C-97.97784936 1.91225008 -94.20769496 1.92480574 -90.4375 1.9375 C-87.88867273 1.9425126 -85.33984453 1.94707592 -82.79101562 1.95117188 C-76.52730291 1.96137669 -70.26371716 1.98094848 -64 2 C-63.67 10.91 -63.34 19.82 -63 29 C-60.03 25.7 -57.06 22.4 -54 19 C-38.20151059 5.77159977 -20.37664997 0 0 0 Z " fill="#FFFFFF" transform="translate(2056,419)"/>
</svg>
